<svg width="550" height="115" viewBox="0 0 550 115" fill="none" xmlns="http://www.w3.org/2000/svg">
    <path d="M0 10C0 4.47715 4.47715 0 10 0H540C545.523 0 550 4.47715 550 10V115H0V10Z" fill="#F2F2F2" />
    <path d="M243.326 57.6971H253.87V59.3739H249.685V67.4115H247.512V59.3739H243.326V57.6971Z" fill="#2F3675" />
    <path d="M279.098 57.6835H290.782V59.3467H281.324C281.294 59.3467 281.279 59.358 281.279 59.3807V65.7144C281.279 65.737 281.294 65.7483 281.324 65.7483H290.782V67.4115H279.098V57.6835ZM281.965 61.3154H289.811V62.999H281.965V61.3154Z" fill="#2F3675" />
    <path d="M320.041 57.67H328.867V59.3331H320.166C319.816 59.3331 319.569 59.4689 319.427 59.7404C319.391 59.8672 319.373 59.9667 319.373 60.0391C319.373 60.5053 319.697 60.7384 320.344 60.7384H325.919C327.308 60.7384 328.445 61.2294 329.33 62.2115C329.757 62.7998 329.971 63.4243 329.971 64.0851C329.971 65.2075 329.407 66.1149 328.279 66.8073C327.572 67.2101 326.691 67.4115 325.634 67.4115H318.269V65.7279H325.946C326.617 65.7279 327.145 65.4609 327.531 64.9269C327.703 64.6101 327.789 64.3295 327.789 64.0851C327.789 63.4289 327.466 62.9333 326.818 62.5984C326.504 62.4672 326.151 62.4015 325.759 62.4015H320.246C318.815 62.4015 317.839 61.8675 317.316 60.7995C317.233 60.5505 317.192 60.3152 317.192 60.0935V59.9169C317.192 59.3874 317.447 58.8806 317.958 58.3963C318.575 57.9121 319.27 57.67 320.041 57.67Z" fill="#2F3675" />
    <path d="M355.079 57.6971H365.623V59.3739H361.437V67.4115H359.264V59.3739H355.079V57.6971Z" fill="#2F3675" />
    <path d="M390.85 57.6835H402.534V59.3467H393.077C393.047 59.3467 393.032 59.358 393.032 59.3807V65.7144C393.032 65.737 393.047 65.7483 393.077 65.7483H402.534V67.4115H390.85V57.6835ZM393.718 61.3154H401.564V62.999H393.718V61.3154Z" fill="#2F3675" />
    <path d="M252.149 33.1462H249.144H243.326V49.9411H252.053L252.149 33.1462ZM252.149 30.4561V28.4204V22.9675V20.3501H272.75L277.042 13.6249H243.326V30.4561H248H252.149ZM263.403 35.1819L267.647 28.4204H255.678V35.1819H263.403Z" fill="#2F3675" />
    <path d="M301.411 13.5885C295.45 13.5885 290.061 15.2607 285.865 17.9872L292.16 22.7857C294.687 21.2589 297.93 20.3137 301.411 20.3137C309.709 20.3137 316.433 25.4394 316.433 31.7648C316.433 34.4185 315.193 36.8905 313.19 38.8535L319.485 43.6157C323.062 40.4167 325.256 36.3089 325.256 31.7648C325.256 21.7315 314.573 13.5885 301.411 13.5885ZM301.411 43.2158C293.113 43.2158 286.389 38.0901 286.389 31.7648C286.389 29.1111 287.629 26.6391 289.632 24.7124L283.337 19.9139C279.761 23.1129 277.567 27.2207 277.567 31.7648C277.567 41.7981 288.249 49.941 301.411 49.941C307.372 49.941 312.761 48.2688 316.958 45.5424L310.711 40.7439C308.135 42.2707 304.893 43.2158 301.411 43.2158Z" fill="#2F3675" />
    <path d="M368.462 24.3489C368.462 18.4234 362.119 13.5885 354.346 13.5885H332.409V49.941H341.231V34.2004V20.3138H354.346C357.255 20.3138 359.639 22.1314 359.639 24.3489C359.639 26.5664 357.255 28.384 354.346 28.384H344.76L358.399 49.941H368.223L358.542 34.6366C364.265 33.2916 368.462 29.1838 368.462 24.3489Z" fill="#2F3675" />
    <path d="M375.615 13.5885V49.941H384.485V29.9108L391.543 35.291V25.7303L375.615 13.5885ZM395.072 25.7303V28.4204V35.291L402.13 29.9108V49.941H411V13.5885L395.072 25.7303Z" fill="#2F3675" />
    <path fill-rule="evenodd" clip-rule="evenodd" d="M179.791 19.5352C193.289 19.8236 204.384 27.5517 206.25 37.5232L212.788 42.5063L218.883 37.86C217.143 22.4712 200.365 10.3179 179.833 10L186.066 14.7516L179.791 19.5352ZM151.509 39.9045C151.887 29.6152 162.026 21.1572 175.106 19.7353L181.643 14.7516L175.548 10.1053C155.36 11.431 139.417 24.2214 139 39.8731L145.233 35.1215L151.509 39.9045ZM178.232 61.4648C164.732 61.1757 153.637 53.447 151.77 43.4755L145.233 38.4924L139.138 43.1387C140.876 58.5282 157.656 70.6821 178.188 71L171.956 66.2491L178.232 61.4648ZM219.022 41.1262L212.788 45.8778L206.514 41.0948C206.135 51.3835 195.996 59.8415 182.916 61.2647L176.378 66.2491L182.473 70.8947C202.661 69.5683 218.605 56.7786 219.022 41.1262Z" fill="#2F3675" />
</svg>
    