<svg width="550" height="157" viewBox="0 0 550 157" fill="none" xmlns="http://www.w3.org/2000/svg">
<g clip-path="url(#clip0_1_4)">
<path d="M-3.62986 -883.082L682.5 -645.75L682.5 -217.267C536.5 -192.062 757.5 325.266 -21.5 99.4295C-372.518 -340.583 -61.6275 -523.657 62.0663 -768.698L-3.62986 -883.082Z" fill="#2F3676"/>
<rect width="72.9086" height="10.0698" transform="matrix(0.8867 -0.461507 0.456057 0.890382 373.807 45.1412)" fill="#181847"/>
<rect width="72.9086" height="10.0698" transform="matrix(0.8867 -0.461507 0.456057 0.890382 426.388 128.792)" fill="#181847"/>
<rect width="68.2223" height="10.0697" transform="matrix(0.886702 -0.461504 0.45606 0.890381 427.792 84.1071)" fill="#181847"/>
<rect width="64.3344" height="10.0546" transform="matrix(-0.846882 -0.532485 0.525789 -0.850178 433.635 91.7308)" fill="#181847"/>
<rect width="55.4441" height="10.019" transform="matrix(0.0534144 -0.998573 0.998489 0.054964 370.818 100.679)" fill="#181847"/>
<path d="M460.369 95.6113L461.247 68.6813L470.669 68.7924L469.432 91.9426L460.369 95.6113Z" fill="#181847"/>
<rect width="55.4441" height="10.019" transform="matrix(0.0534144 -0.998573 0.998489 0.054964 485.811 103.941)" fill="#181847"/>
<path d="M427.469 127.298L429.8 83.7175L439.801 84.2682L437.325 130.573L427.469 127.298Z" fill="#181847"/>
<path d="M460.858 69.7283L406.374 35.4715L411.661 26.9233L467.928 64.1001L460.858 69.7283Z" fill="#181847"/>
<rect width="70.4179" height="10.0545" transform="matrix(-0.846884 -0.532482 0.525792 -0.850176 492.879 57.5419)" fill="#181847"/>
<rect width="70.5199" height="10.0545" transform="matrix(-0.846884 -0.532482 0.525792 -0.850176 431.087 137.853)" fill="#181847"/>
</g>
<defs>
<clipPath id="clip0_1_4">
<rect width="550" height="615" rx="10" fill="white"/>
</clipPath>
</defs>
</svg>
