<svg width="272" height="61" viewBox="0 0 272 61" fill="none" xmlns="http://www.w3.org/2000/svg">
    <path d="M104.326 47.6971H114.87V49.3739H110.685V57.4115H108.512V49.3739H104.326V47.6971Z" fill="#2F3675" />
    <path d="M140.098 47.6835H151.782V49.3467H142.324C142.294 49.3467 142.279 49.358 142.279 49.3807V55.7144C142.279 55.737 142.294 55.7483 142.324 55.7483H151.782V57.4115H140.098V47.6835ZM142.965 51.3154H150.811V52.999H142.965V51.3154Z" fill="#2F3675" />
    <path d="M181.041 47.67H189.867V49.3331H181.166C180.816 49.3331 180.569 49.4689 180.427 49.7404C180.391 49.8672 180.373 49.9667 180.373 50.0391C180.373 50.5053 180.697 50.7384 181.344 50.7384H186.919C188.308 50.7384 189.445 51.2294 190.33 52.2115C190.757 52.7998 190.971 53.4243 190.971 54.0851C190.971 55.2075 190.407 56.1149 189.279 56.8073C188.572 57.2101 187.691 57.4115 186.634 57.4115H179.269V55.7279H186.946C187.617 55.7279 188.145 55.4609 188.531 54.9269C188.703 54.6101 188.789 54.3295 188.789 54.0851C188.789 53.4289 188.466 52.9333 187.818 52.5984C187.504 52.4672 187.151 52.4015 186.759 52.4015H181.246C179.815 52.4015 178.839 51.8675 178.316 50.7995C178.233 50.5505 178.192 50.3152 178.192 50.0935V49.9169C178.192 49.3874 178.447 48.8806 178.958 48.3963C179.575 47.9121 180.27 47.67 181.041 47.67H181.041Z" fill="#2F3675" />
    <path d="M216.079 47.6971H226.623V49.3739H222.437V57.4115H220.264V49.3739H216.079V47.6971Z" fill="#2F3675" />
    <path d="M251.85 47.6835H263.534V49.3467H254.077C254.047 49.3467 254.032 49.358 254.032 49.3807V55.7144C254.032 55.737 254.047 55.7483 254.077 55.7483H263.534V57.4115H251.85V47.6835ZM254.718 51.3154H262.564V52.999H254.718V51.3154Z" fill="#2F3675" />
    <path d="M113.149 23.1462H110.144H104.326V39.9411H113.053L113.149 23.1462ZM113.149 20.4561V18.4204V12.9675V10.3501H133.75L138.042 3.62491H104.326V20.4561H109H113.149ZM124.403 25.1819L128.647 18.4204H116.678V25.1819H124.403Z" fill="#2F3675" />
    <path d="M162.411 3.58853C156.45 3.58853 151.061 5.26075 146.865 7.98719L153.16 12.7857C155.687 11.2589 158.93 10.3137 162.411 10.3137C170.709 10.3137 177.433 15.4394 177.433 21.7648C177.433 24.4185 176.193 26.8905 174.19 28.8535L180.485 33.6157C184.062 30.4167 186.256 26.3089 186.256 21.7648C186.256 11.7315 175.573 3.58854 162.411 3.58854V3.58853ZM162.411 33.2158C154.113 33.2158 147.389 28.0901 147.389 21.7648C147.389 19.1111 148.629 16.6391 150.632 14.7124L144.337 9.91387C140.761 13.1129 138.567 17.2207 138.567 21.7648C138.567 31.7981 149.249 39.941 162.411 39.941C168.372 39.941 173.761 38.2688 177.958 35.5424L171.711 30.7439C169.135 32.2707 165.893 33.2158 162.411 33.2158V33.2158Z" fill="#2F3675" />
    <path d="M229.462 14.3489C229.462 8.42341 223.119 3.58853 215.346 3.58853H193.409V39.941H202.231V24.2004V10.3138H215.346C218.255 10.3138 220.639 12.1314 220.639 14.3489C220.639 16.5664 218.255 18.384 215.346 18.384H205.76L219.399 39.941H229.223L219.542 24.6366C225.265 23.2916 229.462 19.1838 229.462 14.3489V14.3489Z" fill="#2F3675" />
    <path d="M236.615 3.58853V39.941H245.485V19.9108L252.543 25.291V15.7303L236.615 3.58853ZM256.072 15.7303V18.4204V25.291L263.13 19.9108V39.941H272V3.58853L256.072 15.7303Z" fill="#2F3675" />
    <path fill-rule="evenodd" clip-rule="evenodd" d="M40.7907 9.5352C54.2887 9.82363 65.3842 17.5517 67.2504 27.5232L73.7883 32.5063L79.8834 27.86C78.1434 12.4712 61.3654 0.317861 40.8327 0L47.0661 4.75157L40.7907 9.5352ZM12.5087 29.9045C12.8871 19.6152 23.026 11.1572 36.1061 9.73533L42.6431 4.75157L36.5479 0.105298C16.3602 1.43103 0.416984 14.2214 0 29.8731L6.23332 25.1215L12.5087 29.9045ZM39.2317 51.4648C25.7321 51.1757 14.6374 43.447 12.7704 33.4755L6.23331 28.4924L0.138134 33.1387C1.87643 48.5282 18.6562 60.6821 39.188 61L32.9555 56.2491L39.2317 51.4648ZM80.0216 31.1262L73.7883 35.8778L67.5138 31.0948C67.1354 41.3835 56.9965 49.8415 43.9164 51.2647L37.3785 56.2491L43.4728 60.8947C63.6605 59.5683 79.6046 46.7786 80.0216 31.1262V31.1262Z" fill="#2F3675" />
</svg>